<?xml version="1.0" standalone="no"?>
<!DOCTYPE svg PUBLIC "-//W3C//DTD SVG 20010904//EN"
 "http://www.w3.org/TR/2001/REC-SVG-20010904/DTD/svg10.dtd">
<svg version="1.0" xmlns="http://www.w3.org/2000/svg"
 width="1280.000000pt" height="834.000000pt" viewBox="0 0 1280.000000 834.000000"
 preserveAspectRatio="xMidYMid meet">
<metadata>
Created by potrace 1.15, written by Peter Selinger 2001-2017
</metadata>
<g transform="translate(0.000000,834.000000) scale(0.100000,-0.100000)"
fill="#000000" stroke="none">
<path d="M8160 8270 c-425 -66 -1105 -172 -2605 -404 -407 -63 -1120 -174
-1585 -246 -2047 -317 -2627 -407 -3278 -507 l-693 -108 3 -100 3 -100 195
-46 195 -45 5 -2716 5 -2716 85 -68 c75 -59 94 -70 160 -86 41 -9 81 -17 88
-18 9 0 12 175 12 844 l0 844 188 -58 c103 -32 815 -251 1582 -485 767 -235
1401 -430 1408 -434 9 -5 13 -185 15 -846 l2 -839 75 -53 c41 -30 83 -60 93
-68 12 -11 43 -15 107 -15 l90 0 0 809 c0 637 3 811 12 818 7 4 562 163 1233
354 l1220 346 3 955 2 956 53 6 c28 3 84 8 122 12 74 6 57 10 1505 -340 l255
-62 5 -337 5 -338 85 -45 c83 -43 87 -44 170 -42 l85 3 3 338 c2 316 3 338 20
333 9 -3 215 -53 457 -111 242 -58 599 -144 793 -191 l353 -85 795 231 c437
126 799 230 804 230 6 0 10 -240 10 -640 l0 -640 70 -35 c39 -19 70 -40 70
-45 0 -6 39 -10 95 -10 l95 0 0 2479 0 2479 50 11 c28 6 59 11 70 11 41 0 50
25 50 140 l0 108 -27 6 c-16 3 -147 23 -293 45 -250 38 -1431 219 -3113 476
-412 63 -754 115 -760 114 -7 -1 -208 -32 -447 -69z"/>
</g>
</svg>
